<svg height='300px' width='300px'  fill="#000000" xmlns="http://www.w3.org/2000/svg" xmlns:xlink="http://www.w3.org/1999/xlink" viewBox="0 0 100 100" version="1.1" x="0px" y="0px"><title>attachment</title><desc>Created with Sketch.</desc><g stroke="none" stroke-width="1" fill="none" fill-rule="evenodd"><path d="M56.3590578,87.0636424 C45.7277921,97.6454525 28.5331005,97.6454525 17.9018348,87.0636424 C7.36605508,76.5245284 7.36605508,59.4511465 17.9018348,48.9120325 L56.1338985,10.940383 C64.1226741,3.01987234 77.0105561,3.01987234 84.9993317,10.940383 C88.8275643,14.7186595 90.9821909,19.8710333 90.9821909,25.2472367 C90.9821909,30.6234401 88.8275643,35.7758139 84.9993317,39.5540904 L49.9194994,74.3764325 C47.381125,76.9454807 43.918449,78.391566 40.3051936,78.391566 C36.6919383,78.391566 33.2292623,76.9454807 30.6908879,74.3764325 C28.1472012,71.8439142 26.7174295,68.4037909 26.7174295,64.816035 C26.7174295,61.228279 28.1472012,57.7881558 30.6908879,55.2556374 L52.9366352,33.2104855 C53.3594093,32.7846257 53.9349074,32.5450856 54.5352668,32.5450856 C55.1356263,32.5450856 55.7111243,32.7846257 56.1338985,33.2104855 L58.5656198,35.5949611 C58.991875,36.0173431 59.2316375,36.5923073 59.2316375,37.1921099 C59.2316375,37.7919124 58.991875,38.3668767 58.5656198,38.7892586 L36.3198725,60.8344106 C34.4379853,63.0915044 34.593723,66.4109438 36.6786861,68.4822704 C38.7636492,70.5535971 42.0869952,70.690487 44.3355466,68.7976594 L79.4153789,34.0203074 C81.7501478,31.7057944 83.0633402,28.5557639 83.0633402,25.2697317 C83.0633402,21.9836996 81.7501478,18.833669 79.4153789,16.5191561 C74.5324489,11.669204 66.6458132,11.669204 61.7628831,16.5191561 L23.4407556,54.4908056 C15.9978789,61.9525532 15.9978789,74.0231217 23.4407556,81.4848693 C31.0063265,88.8985395 43.1194705,88.8985395 50.6850413,81.4848693 L76.1280519,56.2454198 C77.024293,55.353103 78.474106,55.353103 79.3703471,56.2454198 L81.7570366,58.6298954 C82.1923923,59.0381056 82.4393535,59.6080437 82.4393535,60.2045491 C82.4393535,60.8010545 82.1923923,61.3709926 81.7570366,61.7792028 L56.3590578,87.0636424 Z" fill="#000000" fill-rule="nonzero"></path></g></svg>
