<svg height='300px' width='300px'  fill="#000000" xmlns="http://www.w3.org/2000/svg" xmlns:xlink="http://www.w3.org/1999/xlink" xml:space="preserve" version="1.1" style="shape-rendering:geometricPrecision;text-rendering:geometricPrecision;image-rendering:optimizeQuality;" viewBox="0 0 318.66 216.65" x="0px" y="0px" fill-rule="evenodd" clip-rule="evenodd"><defs><style type="text/css">.fil0 {fill:#000000;fill-rule:nonzero}</style></defs><g><path class="fil0" d="M299.61 0l-280.56 0c-10.5,0 -19.05,8.55 -19.05,19.05l0 178.55c0,10.5 8.55,19.05 19.05,19.05l280.56 0c10.5,0 19.05,-8.55 19.05,-19.05l0 -178.55c0,-10.5 -8.55,-19.05 -19.05,-19.05zm-98.32 115.53l-73.73 45.52c-5.66,3.49 -12.9,-0.55 -12.9,-7.2l0 -91.04c0,-6.65 7.24,-10.69 12.9,-7.2l73.73 45.52c5.35,3.31 5.35,11.09 0,14.4z"></path></g></svg>
